<?xml version="1.0" standalone="no"?>
<!DOCTYPE svg PUBLIC "-//W3C//DTD SVG 20010904//EN"
 "http://www.w3.org/TR/2001/REC-SVG-20010904/DTD/svg10.dtd">
<svg version="1.0" xmlns="http://www.w3.org/2000/svg"
 width="30.000000pt" height="30.000000pt" viewBox="0 0 30.000000 30.000000"
 preserveAspectRatio="xMidYMid meet">
<metadata>
Created by potrace 1.10, written by Peter Selinger 2001-2011
</metadata>
<g transform="translate(0.000000,30.000000) scale(0.100000,-0.100000)"
fill="#000000" stroke="none">
<path d="M53 254 c-7 -3 -13 -23 -13 -44 0 -37 2 -40 35 -46 53 -10 65 -1 65
49 0 43 0 43 -37 44 -21 1 -44 -1 -50 -3z m57 -45 c0 -5 -9 -9 -20 -9 -22 0
-27 16 -7 23 15 5 27 -1 27 -14z"/>
<path d="M178 253 c-13 -3 -18 -15 -18 -44 0 -45 13 -54 64 -45 30 6 34 11 38
42 6 47 -23 63 -84 47z m50 -45 c-7 -19 -38 -22 -38 -4 0 10 9 16 21 16 12 0
19 -5 17 -12z"/>
<path d="M45 142 c-3 -3 -5 -25 -5 -48 0 -47 12 -56 65 -50 29 3 30 6 33 55
l3 51 -45 -2 c-25 0 -48 -4 -51 -6z m65 -42 c0 -11 -7 -20 -15 -20 -15 0 -21
21 -8 33 12 13 23 7 23 -13z"/>
<path d="M159 141 c-2 -13 3 -86 6 -89 8 -8 62 -9 83 -1 20 8 23 15 20 51 l-3
43 -52 1 c-29 1 -53 -1 -54 -5z m81 -41 c0 -15 -7 -20 -25 -20 -18 0 -25 5
-25 20 0 15 7 20 25 20 18 0 25 -5 25 -20z"/>
</g>
</svg>
