<?xml version="1.0" standalone="no"?>
<!DOCTYPE svg PUBLIC "-//W3C//DTD SVG 20010904//EN"
 "http://www.w3.org/TR/2001/REC-SVG-20010904/DTD/svg10.dtd">
<svg version="1.0" xmlns="http://www.w3.org/2000/svg"
 width="50.000000pt" height="50.000000pt" viewBox="0 0 50.000000 50.000000"
 preserveAspectRatio="xMidYMid meet">
<metadata>
Created by potrace 1.10, written by Peter Selinger 2001-2011
</metadata>
<g transform="translate(0.000000,50.000000) scale(0.100000,-0.100000)"
fill="#000000" stroke="none">
<path d="M207 433 c-30 -48 -29 -71 0 -34 18 21 18 20 19 -52 l0 -74 -60 -2
c-34 -1 -69 -4 -78 -7 -22 -7 -22 0 -2 30 10 16 12 26 5 31 -6 3 -16 -6 -21
-22 -6 -15 -17 -33 -25 -38 -10 -9 -4 -20 31 -54 49 -47 62 -35 14 14 l-29 30
84 0 84 0 3 -88 c2 -48 1 -87 0 -87 -2 0 -12 10 -23 23 -14 16 -18 18 -19 7 0
-9 13 -31 29 -50 l29 -35 36 39 c20 21 34 42 30 45 -3 3 -16 -6 -29 -22 -13
-15 -27 -27 -30 -27 -3 0 -5 45 -5 101 0 55 3 98 8 96 4 -3 40 -2 80 2 78 7
88 5 71 -15 -23 -27 10 -21 37 7 l29 31 -24 19 c-23 18 -51 26 -51 13 0 -4 8
-13 18 -20 15 -12 13 -13 -18 -14 -19 0 -62 -2 -95 -4 l-60 -4 1 67 c2 88 2
89 19 67 8 -11 18 -17 21 -13 3 3 -3 18 -15 33 -11 15 -21 33 -21 40 0 25 -15
14 -43 -33z"/>
</g>
</svg>
