<?xml version="1.0" standalone="no"?>
<!DOCTYPE svg PUBLIC "-//W3C//DTD SVG 20010904//EN"
 "http://www.w3.org/TR/2001/REC-SVG-20010904/DTD/svg10.dtd">
<svg version="1.0" xmlns="http://www.w3.org/2000/svg"
 width="30.000000pt" height="30.000000pt" viewBox="0 0 30.000000 30.000000"
 preserveAspectRatio="xMidYMid meet">
<metadata>
Created by potrace 1.10, written by Peter Selinger 2001-2011
</metadata>
<g transform="translate(0.000000,30.000000) scale(0.100000,-0.100000)"
fill="#000000" stroke="none">
<path d="M25 270 c-3 -5 -1 -10 4 -10 6 0 11 -11 11 -24 0 -39 11 -56 35 -56
30 0 49 24 41 53 -8 34 -76 62 -91 37z"/>
<path d="M112 180 c-22 -35 12 -57 38 -25 10 12 10 18 0 30 -16 20 -23 19 -38
-5z"/>
<path d="M152 140 l-22 -18 56 -51 c50 -46 84 -64 84 -43 0 4 -22 35 -48 68
-48 61 -48 61 -70 44z"/>
</g>
</svg>
